<?xml version="1.0" standalone="no"?><!DOCTYPE svg PUBLIC "-//W3C//DTD SVG 1.1//EN" "http://www.w3.org/Graphics/SVG/1.1/DTD/svg11.dtd"><svg t="1590721671783" class="icon" viewBox="0 0 1024 1024" version="1.1" xmlns="http://www.w3.org/2000/svg" p-id="5711" width="20" height="20" xmlns:xlink="http://www.w3.org/1999/xlink"><defs><style type="text/css"></style></defs><path d="M870.4 409.6a101.888 101.888 0 0 0-56.9856 17.3568A102.5536 102.5536 0 0 0 716.8 358.4a101.888 101.888 0 0 0-56.9856 17.3568A102.5536 102.5536 0 0 0 563.2 307.2c-18.6368 0-36.1472 5.0176-51.2 13.7728V153.6c0-56.4736-45.9264-102.4-102.4-102.4s-102.4 45.9264-102.4 102.4v377.4976L238.2848 411.648a99.6864 99.6864 0 0 0-61.3888-48.7936 95.5392 95.5392 0 0 0-74.8544 10.3424c-46.4384 27.8528-64.1536 90.8288-39.424 140.3904 1.536 3.1232 34.2016 70.0416 136.192 273.92 48.0256 96 100.7104 164.6592 156.6208 203.9808 43.8784 30.8736 74.1888 32.4608 79.8208 32.4608h256c43.4176 0 83.5584-12.544 119.3472-37.376 34.6112-23.9616 64.4608-58.9824 88.7808-104.0896 48.0768-89.2416 73.472-217.3952 73.472-370.5344 0-56.4736-45.9264-102.4-102.4-102.4z m-16.128 448.6656C826.1632 910.5408 775.0144 972.8 691.2 972.8H435.712c-1.9968-0.1536-23.552-2.56-56.064-26.88-32.4096-24.2688-82.176-75.3664-135.0656-181.248-103.7824-207.5648-135.68-272.9472-135.9872-273.5616l-0.1024-0.2048c-12.8512-25.7536-3.7376-59.4944 19.9168-73.6768a44.8512 44.8512 0 0 1 35.072-4.864 48.9472 48.9472 0 0 1 30.0544 24.1664l0.3072 0.512 79.9232 138.496c16.3328 29.8496 34.7136 42.3936 54.6304 37.3248 19.968-5.0688 30.0544-25.0368 30.0544-59.2384V153.6512c0-28.2112 22.9888-51.2 51.2-51.2s51.2 22.9888 51.2 51.2v332.8a25.6 25.6 0 0 0 51.2 0v-76.8c0-28.2112 22.9888-51.2 51.2-51.2s51.2 22.9888 51.2 51.2v76.8a25.6 25.6 0 0 0 51.2 0v-25.6c0-28.2112 22.9888-51.2 51.2-51.2s51.2 22.9888 51.2 51.2v76.8a25.6 25.6 0 0 0 51.2 0v-25.6c0-28.2112 22.9888-51.2 51.2-51.2s51.2 22.9888 51.2 51.2c0 144.6912-23.296 264.448-67.328 346.2656z" fill="#1296db" p-id="5712"></path></svg>