<?xml version="1.0" standalone="no"?><!DOCTYPE svg PUBLIC "-//W3C//DTD SVG 1.1//EN" "http://www.w3.org/Graphics/SVG/1.1/DTD/svg11.dtd"><svg t="1590721953883" class="icon" viewBox="0 0 1024 1024" version="1.1" xmlns="http://www.w3.org/2000/svg" p-id="14998" width="20" height="20" xmlns:xlink="http://www.w3.org/1999/xlink"><defs><style type="text/css"></style></defs><path d="M399.126092 88.048242c45.488691-0.48398 72.2926 17.29018 80.960558 53.082199 0.016383 3.999493 0.381587 176.357247 0.381587 258.537654 0 31.058022 0 62.124235 0 93.180891 2.628102 9.086407 13.494792 21.856934 22.14978 25.205204 13.040847 5.043908 30.359697-18.822671 32.843083-27.49609 0-5.854865 0-11.711778 0-17.566643 0-41.748594 0-83.510159 0-125.259436 2.402153-8.339616 17.299055-28.909122 25.585426-30.933102 9.450245-2.307951 24.992226 6.018012 30.168563 9.165591 10.527426 6.400964 19.488229 15.695571 22.14978 29.786293 0 43.403957 0 86.820885 0 130.224159 2.68749 6.796203 19.181731 21.898574 27.113138 23.67681 10.725387 2.403519 16.50175-9.21474 19.858894-14.894171 10.349943-17.50862 5.732675-63.524296 5.72858-90.88864-0.002048-19.621341-1.400062-35.321691 14.128949-39.334836 11.782088-3.044503 22.841278 4.936736 29.789024 8.784004 56.250939 31.146763-0.490124 121.575997 42.388896 138.625211 13.475678 5.357915 20.298504-4.899874 23.67681-13.748045 9.627727-25.20657-11.98551-83.713581 31.315371-72.176554 22.102679 5.888996 43.976679 19.152378 54.226959 37.807124 22.69861 41.307619-9.07685 210.86525-28.640851 276.10498-12.984189 43.298833-29.503687 82.692375-50.791996 117.620874-9.715786 15.945411-19.290268 30.969281-30.168563 45.445003-3.37694 4.496444-6.243278 9.973135-10.691938 13.366458-136.573927 0-273.190859 0-409.765468 0-12.728205-15.528328-25.459823-31.063483-38.188028-46.590446-52.810515-69.942326-102.843432-144.514208-130.988015-238.680125-3.839077-12.842886-5.465769-26.475568-8.019465-40.479597-9.416114-51.644593 10.614119-100.596235 30.551515-128.695764 7.395547-10.425032 16.945455-18.879329 24.822252-28.642216 9.671415-11.986875 22.404399-27.748661 37.424855-33.987843 17.449232-7.248783 24.440666 7.155946 28.641533 19.475942 12.927531 37.910883 0.183626 188.039672 52.319025 110.365948 5.113536-7.618083 3.438377-22.131349 3.436329-34.7517 0-23.92938 0-47.866952 0-71.79565 0-174.538054-2.290886-286.7819 6.874705-302.454262 8.31982-14.227247 21.191376-23.456322 38.570298-28.641533C384.359572 90.339811 391.743515 89.194368 399.126092 88.048242z" p-id="14999" fill="#1296db"></path></svg>